HIERARCHY
ROOT newVegas:Hips
{
	OFFSET 0.000000 96.479958 0.000000
	CHANNELS 6 Xposition Yposition Zposition Xrotation Yrotation Zrotation
	JOINT newVegas:Pelvis
	{
		OFFSET 0.000000 0.000000 0.000000
		CHANNELS 3 Xrotation Yrotation Zrotation
		JOINT newVegas:LeftUpLeg
		{
			OFFSET 18.735201 -5.666702 -4.541200
			CHANNELS 3 Xrotation Yrotation Zrotation
			JOINT newVegas:LeftLeg
			{
				OFFSET -0.021200 -31.938179 0.493100
				CHANNELS 3 Xrotation Yrotation Zrotation
				JOINT newVegas:LeftFoot
				{
					OFFSET 0.021200 -31.938179 -4.336299
					CHANNELS 3 Xrotation Yrotation Zrotation
					JOINT newVegas:LeftToeBase
					{
						OFFSET 0.943001 -26.722000 15.023500
						CHANNELS 3 Xrotation Yrotation Zrotation
						End Site
						{
							OFFSET 0.000000 30.670183 0.000000
						}
					}
				}
				JOINT newVegas:Left_PantLeg
				{
					OFFSET 0.663870 -9.044666 -1.108900
					CHANNELS 3 Xrotation Yrotation Zrotation
					End Site
					{
						OFFSET 1.415995 20.635357 0.000000
					}
				}
			}
		}
		JOINT newVegas:RightUpLeg
		{
			OFFSET -18.735201 -5.666702 -4.541200
			CHANNELS 3 Xrotation Yrotation Zrotation
			JOINT newVegas:RightLeg
			{
				OFFSET 0.018946 -31.938133 0.493100
				CHANNELS 3 Xrotation Yrotation Zrotation
				JOINT newVegas:RightFoot
				{
					OFFSET -0.018946 -31.938126 -4.336299
					CHANNELS 3 Xrotation Yrotation Zrotation
					JOINT newVegas:RightToeBase
					{
						OFFSET -0.943001 -26.722004 15.023500
						CHANNELS 3 Xrotation Yrotation Zrotation
						End Site
						{
							OFFSET 0.000000 30.670187 0.000000
						}
					}
				}
				JOINT newVegas:Right_PantLeg
				{
					OFFSET -0.661674 -9.044716 -1.108900
					CHANNELS 3 Xrotation Yrotation Zrotation
					End Site
					{
						OFFSET -1.415958 20.635269 0.000000
					}
				}
			}
		}
	}
	JOINT newVegas:Spine
	{
		OFFSET 0.000000 10.199997 -0.299500
		CHANNELS 3 Xrotation Yrotation Zrotation
		JOINT newVegas:Spine1
		{
			OFFSET 0.000000 11.900002 -1.516600
			CHANNELS 3 Xrotation Yrotation Zrotation
			JOINT newVegas:Spine2
			{
				OFFSET 0.000000 13.600006 -2.842500
				CHANNELS 3 Xrotation Yrotation Zrotation
				JOINT newVegas:Neck
				{
					OFFSET 0.000000 9.624100 -2.890100
					CHANNELS 3 Xrotation Yrotation Zrotation
					JOINT newVegas:Head
					{
						OFFSET 0.000000 14.068802 -1.351900
						CHANNELS 3 Xrotation Yrotation Zrotation
						JOINT newVegas:Hair_Back
						{
							OFFSET 0.000000 3.231903 -17.524799
							CHANNELS 3 Xrotation Yrotation Zrotation
							End Site
							{
								OFFSET 0.000000 19.849884 0.000000
							}
						}
						JOINT newVegas:Hair_Front
						{
							OFFSET 0.000000 31.260406 4.573800
							CHANNELS 3 Xrotation Yrotation Zrotation
							JOINT newVegas:Hair_Front1
							{
								OFFSET 0.000000 2.284103 11.993300
								CHANNELS 3 Xrotation Yrotation Zrotation
								JOINT newVegas:Hair_Front2
								{
									OFFSET 0.000000 2.284103 11.993300
									CHANNELS 3 Xrotation Yrotation Zrotation
									End Site
									{
										OFFSET 0.000000 12.208862 0.000000
									}
								}
							}
						}
						JOINT newVegas:Jowel
						{
							OFFSET 0.000000 -7.458206 6.864100
							CHANNELS 3 Xrotation Yrotation Zrotation
							End Site
							{
								OFFSET 0.000000 19.849884 0.000000
							}
						}
					}
				}
				JOINT newVegas:LeftShoulder
				{
					OFFSET 15.263000 10.923401 -0.547700
					CHANNELS 3 Xrotation Yrotation Zrotation
					JOINT newVegas:LeftArm
					{
						OFFSET 25.438599 -2.830597 -13.032500
						CHANNELS 3 Xrotation Yrotation Zrotation
						JOINT newVegas:LeftForeArm
						{
							OFFSET 29.960503 0.000000 0.000000
							CHANNELS 3 Xrotation Yrotation Zrotation
							JOINT newVegas:LeftHand
							{
								OFFSET 27.849251 0.000000 0.000000
								CHANNELS 3 Xrotation Yrotation Zrotation
								JOINT newVegas:LeftHandThumb1
								{
									OFFSET 4.487587 -3.305161 6.305391
									CHANNELS 3 Xrotation Yrotation Zrotation
									JOINT newVegas:LeftHandThumb2
									{
										OFFSET 5.480453 -3.164139 3.164143
										CHANNELS 3 Xrotation Yrotation Zrotation
										JOINT newVegas:LeftHandThumb3
										{
											OFFSET 5.159721 -2.978973 2.978967
											CHANNELS 3 Xrotation Yrotation Zrotation
											End Site
											{
												OFFSET 2.494507 5.926697 1.738678
											}
										}
									}
								}
								JOINT newVegas:LeftHandIndex1
								{
									OFFSET 18.578728 -0.527832 5.208049
									CHANNELS 3 Xrotation Yrotation Zrotation
									JOINT newVegas:LeftHandIndex2
									{
										OFFSET 3.192009 0.000000 0.000000
										CHANNELS 3 Xrotation Yrotation Zrotation
										JOINT newVegas:LeftHandIndex3
										{
											OFFSET 3.835129 0.000000 0.000000
											CHANNELS 3 Xrotation Yrotation Zrotation
											End Site
											{
												OFFSET -0.034599 3.816971 0.371180
											}
										}
									}
								}
								JOINT newVegas:LeftHandMiddle1
								{
									OFFSET 18.476105 0.000000 0.000000
									CHANNELS 3 Xrotation Yrotation Zrotation
									JOINT newVegas:LeftHandMiddle2
									{
										OFFSET 3.324875 0.000000 0.000000
										CHANNELS 3 Xrotation Yrotation Zrotation
										JOINT newVegas:LeftHandMiddle3
										{
											OFFSET 4.596550 0.000000 0.000000
											CHANNELS 3 Xrotation Yrotation Zrotation
											End Site
											{
												OFFSET 0.057701 4.578827 0.399218
											}
										}
									}
								}
								JOINT newVegas:LeftHandRing1
								{
									OFFSET 17.732719 0.121887 -4.201567
									CHANNELS 3 Xrotation Yrotation Zrotation
									JOINT newVegas:LeftHandRing2
									{
										OFFSET 2.733170 0.000000 0.000000
										CHANNELS 3 Xrotation Yrotation Zrotation
										JOINT newVegas:LeftHandRing3
										{
											OFFSET 3.178268 0.000000 0.000000
											CHANNELS 3 Xrotation Yrotation Zrotation
											End Site
											{
												OFFSET 0.119102 3.170624 0.185394
											}
										}
									}
								}
								JOINT newVegas:LeftHandPinky1
								{
									OFFSET 15.989624 -0.606689 -7.535461
									CHANNELS 3 Xrotation Yrotation Zrotation
									JOINT newVegas:LeftHandPinky2
									{
										OFFSET 2.538986 0.000000 0.000000
										CHANNELS 3 Xrotation Yrotation Zrotation
										JOINT newVegas:LeftHandPinky3
										{
											OFFSET 2.593102 0.000000 0.000000
											CHANNELS 3 Xrotation Yrotation Zrotation
											End Site
											{
												OFFSET -0.150902 2.584198 0.152708
											}
										}
									}
								}
							}
							JOINT newVegas:Left_Sleeve
							{
								OFFSET 0.267448 -0.649796 0.577675
								CHANNELS 3 Xrotation Yrotation Zrotation
								End Site
								{
									OFFSET 0.000000 15.991241 0.000000
								}
							}
							JOINT newVegas:Left_CapeC
							{
								OFFSET 15.715958 -8.608795 -6.935905
								CHANNELS 3 Xrotation Yrotation Zrotation
								JOINT newVegas:Left_CapeC1
								{
									OFFSET 0.000000 -8.688499 0.000000
									CHANNELS 3 Xrotation Yrotation Zrotation
									End Site
									{
										OFFSET 0.000000 8.688499 0.000000
									}
								}
							}
						}
						JOINT newVegas:Left_CapeB
						{
							OFFSET 26.118385 -8.608795 -7.079235
							CHANNELS 3 Xrotation Yrotation Zrotation
							JOINT newVegas:Left_CapeB1
							{
								OFFSET 0.000000 -8.688499 0.000000
								CHANNELS 3 Xrotation Yrotation Zrotation
								End Site
								{
									OFFSET 0.000000 8.688499 0.000000
								}
							}
						}
						JOINT newVegas:Left_CapeA
						{
							OFFSET 5.115639 -8.608795 -10.395809
							CHANNELS 3 Xrotation Yrotation Zrotation
							JOINT newVegas:Left_CapeA1
							{
								OFFSET 0.000000 -8.688499 0.000000
								CHANNELS 3 Xrotation Yrotation Zrotation
								End Site
								{
									OFFSET 0.000000 8.688499 0.000000
								}
							}
						}
					}
				}
				JOINT newVegas:RightShoulder
				{
					OFFSET -15.263000 10.923401 -0.547700
					CHANNELS 3 Xrotation Yrotation Zrotation
					JOINT newVegas:RightArm
					{
						OFFSET -25.438599 -2.830597 -13.032500
						CHANNELS 3 Xrotation Yrotation Zrotation
						JOINT newVegas:RightForeArm
						{
							OFFSET -29.960503 0.000000 0.000000
							CHANNELS 3 Xrotation Yrotation Zrotation
							JOINT newVegas:RightHand
							{
								OFFSET -27.849251 0.000000 0.000000
								CHANNELS 3 Xrotation Yrotation Zrotation
								JOINT newVegas:RightHandThumb1
								{
									OFFSET -4.487587 -3.305161 6.305391
									CHANNELS 3 Xrotation Yrotation Zrotation
									JOINT newVegas:RightHandThumb2
									{
										OFFSET -5.480453 -3.164139 3.164143
										CHANNELS 3 Xrotation Yrotation Zrotation
										JOINT newVegas:RightHandThumb3
										{
											OFFSET -5.159721 -2.978973 2.978967
											CHANNELS 3 Xrotation Yrotation Zrotation
											End Site
											{
												OFFSET -2.494507 5.926697 1.738678
											}
										}
									}
								}
								JOINT newVegas:RightHandIndex1
								{
									OFFSET -18.578728 -0.527832 5.208049
									CHANNELS 3 Xrotation Yrotation Zrotation
									JOINT newVegas:RightHandIndex2
									{
										OFFSET -3.192009 0.000000 0.000000
										CHANNELS 3 Xrotation Yrotation Zrotation
										JOINT newVegas:RightHandIndex3
										{
											OFFSET -3.835129 0.000000 0.000000
											CHANNELS 3 Xrotation Yrotation Zrotation
											End Site
											{
												OFFSET 0.034599 3.816971 0.371180
											}
										}
									}
								}
								JOINT newVegas:RightHandMiddle1
								{
									OFFSET -18.476105 0.000000 0.000000
									CHANNELS 3 Xrotation Yrotation Zrotation
									JOINT newVegas:RightHandMiddle2
									{
										OFFSET -3.324875 0.000000 0.000000
										CHANNELS 3 Xrotation Yrotation Zrotation
										JOINT newVegas:RightHandMiddle3
										{
											OFFSET -4.596550 0.000000 0.000000
											CHANNELS 3 Xrotation Yrotation Zrotation
											End Site
											{
												OFFSET -0.057701 4.578827 0.399218
											}
										}
									}
								}
								JOINT newVegas:RightHandRing1
								{
									OFFSET -17.732719 0.121887 -4.201567
									CHANNELS 3 Xrotation Yrotation Zrotation
									JOINT newVegas:RightHandRing2
									{
										OFFSET -2.733170 0.000000 0.000000
										CHANNELS 3 Xrotation Yrotation Zrotation
										JOINT newVegas:RightHandRing3
										{
											OFFSET -3.178268 0.000000 0.000000
											CHANNELS 3 Xrotation Yrotation Zrotation
											End Site
											{
												OFFSET -0.119102 3.170624 0.185394
											}
										}
									}
								}
								JOINT newVegas:RightHandPinky1
								{
									OFFSET -15.989624 -0.606689 -7.535461
									CHANNELS 3 Xrotation Yrotation Zrotation
									JOINT newVegas:RightHandPinky2
									{
										OFFSET -2.538986 0.000000 0.000000
										CHANNELS 3 Xrotation Yrotation Zrotation
										JOINT newVegas:RightHandPinky3
										{
											OFFSET -2.593102 0.000000 0.000000
											CHANNELS 3 Xrotation Yrotation Zrotation
											End Site
											{
												OFFSET 0.150902 2.584198 0.152708
											}
										}
									}
								}
							}
							JOINT newVegas:Right_CapeC
							{
								OFFSET -15.715958 -8.608795 -6.935905
								CHANNELS 3 Xrotation Yrotation Zrotation
								JOINT newVegas:Right_CapeC1
								{
									OFFSET 0.000000 -8.688499 0.000000
									CHANNELS 3 Xrotation Yrotation Zrotation
									End Site
									{
										OFFSET 0.000000 8.688499 0.000000
									}
								}
							}
							JOINT newVegas:Right_Sleeve
							{
								OFFSET -0.267448 -0.649994 0.577675
								CHANNELS 3 Xrotation Yrotation Zrotation
								End Site
								{
									OFFSET 0.000000 15.991302 0.000000
								}
							}
						}
						JOINT newVegas:Right_CapeA
						{
							OFFSET -5.115540 -8.608795 -10.395824
							CHANNELS 3 Xrotation Yrotation Zrotation
							JOINT newVegas:Right_CapeA1
							{
								OFFSET 0.000000 -8.688499 0.000000
								CHANNELS 3 Xrotation Yrotation Zrotation
								End Site
								{
									OFFSET 0.000000 8.688499 0.000000
								}
							}
						}
						JOINT newVegas:Right_CapeB
						{
							OFFSET -26.118187 -8.608795 -7.079266
							CHANNELS 3 Xrotation Yrotation Zrotation
							JOINT newVegas:Right_CapeB1
							{
								OFFSET 0.000000 -8.688499 0.000000
								CHANNELS 3 Xrotation Yrotation Zrotation
								End Site
								{
									OFFSET 0.000000 8.688499 0.000000
								}
							}
						}
					}
				}
				JOINT newVegas:Left_Collar
				{
					OFFSET 18.625099 8.655502 8.828100
					CHANNELS 3 Xrotation Yrotation Zrotation
					JOINT newVegas:Left_Collar1
					{
						OFFSET 14.783401 10.540405 -1.259500
						CHANNELS 3 Xrotation Yrotation Zrotation
						End Site
						{
							OFFSET 0.000000 18.199875 0.000000
						}
					}
				}
				JOINT newVegas:Collar_Back
				{
					OFFSET 0.000000 15.630707 -20.132601
					CHANNELS 3 Xrotation Yrotation Zrotation
					End Site
					{
						OFFSET 0.000000 22.523010 0.000000
					}
				}
				JOINT newVegas:Left_Peck
				{
					OFFSET 17.239599 -5.132599 25.482599
					CHANNELS 3 Xrotation Yrotation Zrotation
					End Site
					{
						OFFSET 0.000000 22.523010 0.000000
					}
				}
				JOINT newVegas:Right_Peck
				{
					OFFSET -17.239599 -5.132202 25.482599
					CHANNELS 3 Xrotation Yrotation Zrotation
					End Site
					{
						OFFSET 0.000000 22.523010 0.000000
					}
				}
				JOINT newVegas:Right_Collar
				{
					OFFSET -18.625099 8.655792 8.828100
					CHANNELS 3 Xrotation Yrotation Zrotation
					JOINT newVegas:Right_Collar1
					{
						OFFSET -14.783401 10.539993 -1.259500
						CHANNELS 3 Xrotation Yrotation Zrotation
						End Site
						{
							OFFSET 0.000000 18.199631 0.000000
						}
					}
				}
			}
		}
		JOINT newVegas:Belly
		{
			OFFSET 0.000000 -6.540398 9.014299
			CHANNELS 3 Xrotation Yrotation Zrotation
			End Site
			{
				OFFSET 0.000000 11.566666 0.000000
			}
		}
	}
	JOINT newVegas:ElvisFacialAnim_Joint
	{
		OFFSET 1.000000 -95.330101 -8.825800
		CHANNELS 3 Xrotation Yrotation Zrotation
		End Site
		{
			OFFSET 0.000000 35.315800 0.000000
		}
	}
}
MOTION
Frames: 4
Frame Time: 0.016667
-3.916315 83.274231 2.332612 3.004782 -58.203232 6.441634 -0.000000 -0.000001 0.000000 -38.300760 6.320320 29.635603 47.030972 -9.811724 -10.643164 -10.044551 -1.887288 -11.913673 0.000000 0.000001 0.000000 -0.000000 0.000005 -0.000001 -34.547889 -3.821000 -30.691978 55.034861 4.454131 -7.825924 -22.924806 0.235542 25.816322 -0.000000 0.000003 0.000000 -0.000001 -0.000001 -0.000003 11.191384 0.081146 -2.660820 8.434580 0.027686 -5.592320 8.457040 0.027888 -5.591872 -3.775697 5.323463 1.581346 -3.775689 5.323469 1.581341 -0.000000 0.000001 -0.000000 -3.775691 5.323448 1.581347 -3.775692 5.323490 1.581338 0.000000 0.000001 -0.000000 -0.000000 0.000001 -0.000000 -6.221643 -11.503767 -4.023777 -23.062205 9.568419 -36.639648 0.046074 -43.168916 -0.011200 22.743792 -5.686014 15.979373 -1.064240 -7.954936 8.490080 2.373375 19.986119 -2.038322 0.000002 0.000000 -0.000008 13.340875 -1.006672 10.682282 -0.167586 0.303377 -31.105658 0.000002 -0.000001 0.000001 8.495434 -0.329588 -0.915328 0.231482 0.661173 -29.901872 -0.000000 -0.000001 -0.000002 6.111741 3.150919 -16.210928 0.047036 0.322404 -30.125506 0.000002 -0.000001 -0.000001 -5.636036 7.709846 -13.878630 0.224354 0.276563 -46.588351 -0.000000 -0.000005 -0.000001 0.000003 -0.000001 0.000002 0.000003 -0.000001 0.000002 0.000003 -0.000001 0.000002 0.000001 -0.000001 -0.000004 0.000002 -0.000000 -0.000008 0.000001 -0.000001 -0.000004 0.000000 0.000000 -0.000005 -5.488229 10.658261 2.466463 -41.473906 -26.755564 30.079036 24.955780 111.862864 -23.308835 -8.702506 12.423131 -9.801867 0.265000 10.061116 -10.888495 1.383766 -17.412876 3.016251 0.000003 0.000000 -0.000002 19.443633 11.174425 -13.340215 -0.118650 -0.322724 18.035579 0.000002 0.000000 0.000001 4.320480 2.436978 -4.811722 0.349136 -0.461251 26.890323 0.000001 0.000003 0.000000 -7.005623 -10.695136 5.719846 0.111893 -0.089173 26.155866 0.000006 0.000004 -0.000001 -19.433551 -20.238214 5.987839 0.223773 -0.085774 36.844561 -0.000002 0.000002 0.000001 0.000003 0.000004 0.000001 0.000002 0.000002 -0.000002 0.000001 0.000003 0.000003 -0.000002 0.000003 0.000002 -0.000002 0.000004 0.000002 -0.000002 0.000003 0.000002 -0.000002 0.000004 0.000003 0.000001 0.000000 0.000001 0.000001 0.000000 0.000001 0.000001 0.000000 0.000001 0.000001 0.000000 0.000001 0.000001 0.000000 0.000001 0.000001 0.000000 0.000001 0.000001 0.000000 0.000001 -0.000001 0.000001 -0.000001 -0.000000 -0.000001 0.000000 
-3.983167 83.323883 2.484413 2.490002 -58.180514 5.680440 0.000000 -0.000000 -0.000000 -37.972905 5.757325 29.757273 47.456926 -9.632145 -10.681550 -10.425024 -1.834801 -11.982738 0.000000 0.000001 0.000000 0.000000 0.000002 0.000002 -33.961357 -4.365288 -30.592042 54.529881 4.667619 -7.776858 -22.845641 0.257380 25.772928 0.000000 -0.000001 0.000000 -0.000000 0.000000 -0.000004 11.159273 0.044635 -2.735178 8.343009 -0.023346 -5.688292 8.371670 0.015600 -5.630537 -3.464261 5.276520 1.829943 -3.464268 5.276520 1.829941 0.000001 0.000002 -0.000001 -3.464264 5.276533 1.829946 -3.464269 5.276548 1.829942 -0.000001 0.000002 -0.000000 0.000001 0.000002 -0.000001 -6.221588 -11.502583 -4.090416 -23.051561 9.454023 -36.707411 0.206704 -43.116379 0.092960 22.538456 -5.934224 15.432479 -0.983727 -7.447193 8.678385 2.534427 20.452378 -1.857960 0.000001 0.000002 -0.000002 13.342564 -1.008430 10.138454 -0.166791 0.303606 -31.649614 0.000001 -0.000001 -0.000002 8.486656 -0.324275 -1.459190 0.234602 0.662890 -30.445773 -0.000001 -0.000000 0.000002 6.111055 3.157121 -16.754618 0.047446 0.326158 -30.669380 0.000002 0.000001 -0.000001 -5.627378 7.708071 -14.423264 0.226468 0.278302 -47.132321 -0.000001 0.000000 -0.000000 0.000001 -0.000001 0.000003 0.000001 -0.000001 0.000003 0.000000 -0.000001 0.000003 0.000001 0.000002 -0.000000 0.000001 0.000002 -0.000003 0.000001 0.000002 -0.000000 -0.000000 0.000003 -0.000000 -5.459873 9.874453 2.586596 -40.532535 -25.915529 31.217383 24.790701 110.210785 -23.382832 -8.889561 12.458780 -8.493628 0.272611 9.991973 -10.913345 1.407691 -17.475152 2.991976 0.000001 0.000000 -0.000004 19.443730 11.174452 -13.267047 -0.118592 -0.322774 18.108976 -0.000000 -0.000002 0.000002 4.319290 2.436259 -4.738289 0.349496 -0.461509 26.963714 0.000001 0.000001 0.000000 -7.006184 -10.695776 5.792803 0.111864 -0.089678 26.229284 0.000002 0.000004 -0.000002 -19.433743 -20.238499 6.060286 0.224071 -0.086051 36.918013 -0.000002 0.000002 0.000000 -0.000002 0.000003 -0.000000 -0.000002 -0.000000 0.000002 -0.000002 0.000002 -0.000000 -0.000001 0.000000 -0.000003 -0.000001 0.000001 -0.000001 -0.000001 0.000000 -0.000003 -0.000000 0.000001 0.000001 0.000003 0.000000 -0.000001 0.000003 0.000000 -0.000001 0.000003 0.000000 -0.000001 0.000003 0.000000 -0.000001 0.000003 0.000000 -0.000001 0.000003 0.000000 -0.000001 0.000003 0.000000 -0.000001 -0.000000 0.000000 -0.000000 0.000000 -0.000000 -0.000000 
-4.191226 83.361526 2.644886 1.918877 -58.152695 4.853595 -0.000000 0.000002 -0.000000 -37.589628 5.363653 30.085938 47.845543 -9.715591 -10.745910 -10.885101 -1.779880 -12.039469 -0.000000 -0.000001 0.000000 0.000000 0.000004 -0.000000 -33.210924 -4.925536 -30.410966 54.096123 4.803056 -7.737182 -22.947593 0.247525 25.734529 0.000000 0.000001 -0.000000 0.000001 -0.000002 -0.000003 11.071819 0.007104 -2.811785 8.093928 -0.081179 -5.786256 8.133087 -0.021288 -5.670397 -3.117933 5.218487 2.095113 -3.117934 5.218489 2.095113 0.000001 0.000001 -0.000000 -3.117852 5.218477 2.095111 -3.117923 5.218471 2.095119 0.000001 0.000001 -0.000000 0.000001 0.000001 -0.000000 -6.237335 -11.503385 -4.274838 -23.016759 9.112612 -36.903635 0.376376 -42.965810 0.192111 22.289808 -6.181486 14.845756 -0.897585 -6.894442 8.882396 2.708413 20.960126 -1.662700 0.000002 -0.000002 -0.000005 13.344382 -1.010277 9.546757 -0.165976 0.306037 -32.241450 0.000001 0.000000 -0.000000 8.477202 -0.316711 -2.050868 0.237940 0.664729 -31.037664 -0.000000 -0.000002 -0.000002 6.110046 3.163940 -17.346112 0.047847 0.330112 -31.261223 -0.000001 0.000001 0.000000 -5.619450 7.706685 -15.015751 0.228759 0.280192 -47.724123 0.000001 -0.000005 0.000000 0.000002 -0.000002 -0.000000 0.000002 -0.000002 -0.000000 0.000002 -0.000002 0.000000 0.000002 -0.000001 0.000001 0.000002 0.000000 -0.000001 0.000002 -0.000001 0.000001 0.000001 -0.000000 0.000001 -5.454990 9.092291 2.875205 -39.552041 -24.929103 32.615270 32.279375 109.755191 -30.680195 -5.944204 12.171675 -6.772567 0.293732 9.798396 -10.982919 1.474594 -17.649525 2.924099 0.000003 0.000001 0.000001 19.444037 11.174649 -13.062125 -0.118463 -0.322969 18.314505 -0.000001 -0.000000 0.000004 4.315988 2.434228 -4.532564 0.350633 -0.462237 27.169196 -0.000000 -0.000002 -0.000003 -7.007853 -10.697468 5.997242 0.111884 -0.091078 26.434813 0.000002 0.000002 0.000001 -19.434381 -20.239268 6.263171 0.224714 -0.086831 37.123533 -0.000002 0.000003 0.000002 -0.000001 -0.000003 -0.000000 -0.000000 -0.000001 0.000001 -0.000001 -0.000003 0.000001 -0.000000 0.000002 -0.000003 -0.000000 0.000003 -0.000003 -0.000000 0.000002 -0.000003 -0.000000 0.000003 -0.000002 0.000003 -0.000000 -0.000000 0.000003 -0.000000 -0.000000 0.000003 -0.000000 -0.000000 0.000003 -0.000000 -0.000000 0.000003 -0.000000 -0.000000 0.000003 -0.000000 -0.000000 0.000003 -0.000000 -0.000000 0.000001 -0.000001 0.000000 -0.000000 0.000002 -0.000000 
-4.469764 83.410461 2.808404 1.326218 -58.120101 4.001293 0.000000 -0.000002 -0.000000 -37.161919 5.105064 30.520164 48.144091 -9.948544 -10.814602 -11.350116 -1.725606 -12.080414 -0.000000 -0.000001 -0.000000 -0.000000 -0.000004 0.000000 -32.349395 -5.500015 -30.173242 53.634931 4.894880 -7.697484 -23.110201 0.222876 25.692902 0.000000 0.000003 0.000000 -0.000001 0.000001 -0.000001 10.941395 -0.030044 -2.888879 7.716264 -0.138319 -5.878631 7.767791 -0.077111 -5.711217 -2.769097 5.145403 2.351346 -2.769099 5.145414 2.351343 0.000001 0.000000 0.000000 -2.769027 5.145417 2.351336 -2.769169 5.145443 2.351347 -0.000000 0.000001 -0.000001 0.000001 0.000000 0.000000 -6.272274 -11.473012 -4.554317 -22.962492 8.580370 -37.210270 0.522215 -42.740452 0.264838 22.035022 -6.411148 14.252148 -0.807496 -6.305778 9.098574 2.892307 21.501304 -1.455675 0.000001 -0.000001 -0.000006 13.346306 -1.012334 8.916802 -0.165090 0.308702 -32.871535 -0.000000 0.000000 0.000001 8.471093 -0.308438 -2.680896 0.241573 0.666616 -31.667803 -0.000001 0.000001 -0.000004 6.108674 3.171290 -17.975939 0.048345 0.334393 -31.891304 -0.000000 -0.000001 -0.000000 -5.612721 7.705876 -15.646336 0.231237 0.282237 -48.354222 -0.000000 -0.000002 -0.000001 0.000003 0.000001 0.000005 0.000003 0.000001 0.000005 0.000002 0.000000 0.000005 -0.000002 -0.000001 0.000001 -0.000002 -0.000001 -0.000002 -0.000002 -0.000001 0.000001 -0.000003 -0.000000 0.000001 -5.464604 8.274664 3.337421 -38.620062 -23.706173 34.142862 37.232912 108.739221 -35.689975 -3.949276 11.691905 -4.741121 0.325840 9.501092 -11.089667 1.574317 -17.916679 2.815878 0.000001 0.000001 -0.000000 19.444459 11.174849 -12.747390 -0.118166 -0.323177 18.630190 -0.000000 0.000002 0.000003 4.310947 2.431049 -4.216693 0.352344 -0.463339 27.484855 0.000000 -0.000003 -0.000004 -7.005731 -10.700425 6.312124 0.111852 -0.093219 26.750432 0.000003 -0.000001 -0.000002 -19.434436 -20.236066 6.577720 0.225747 -0.088066 37.439122 -0.000004 0.000001 0.000001 0.000003 0.000001 0.000000 0.000001 -0.000004 -0.000003 0.000003 0.000000 -0.000000 -0.000002 0.000003 -0.000000 -0.000002 0.000003 -0.000000 -0.000002 0.000003 -0.000000 -0.000002 0.000003 0.000001 0.000001 -0.000001 0.000003 0.000001 -0.000001 0.000003 0.000001 -0.000001 0.000003 0.000001 -0.000001 0.000003 0.000001 -0.000001 0.000003 0.000001 -0.000001 0.000003 0.000001 -0.000001 0.000003 0.000000 -0.000002 0.000000 0.000000 -0.000002 -0.000000 
